# xmcd
# 
# Track frame offsets:
#     150
#     9615
#     11190
#     27660
#     48135
#     67060
#     88335
#     107890
#     123775
#     140255
#     160220
#     176970
#     196780
#     212310
#     227820
#     245135
#     262850
#     282045
#     297080
#     316600
#     334680
# 
# Disc length: 4466
# 
# Revision: 1
# Processed by: cddbd v1.5.2PL0 Copyright (c) Steve Scherf et al.
# Submitted via: fre:ac v1.0.31
# 
DISCID=2a117015
DTITLE=Various Artist - ザ・ベストテン 1982-1983
DYEAR=2009
DGENRE=JPop
TTITLE0=ザ・ベストテン - ザ・ベストテンのテーマ
TTITLE1=ザ・ベストテン - ミラーゲートのテーマ
TTITLE2=松田聖子 - 赤いスイートピー
TTITLE3=中村雅俊 - 心の色
TTITLE4=忌野清志郎＋坂本龍一 - い・け・な・いルージュマジック
TTITLE5=大橋純子 - シルエット・ロマンス
TTITLE6=岩崎宏美 - 聖母たちのララバイ
TTITLE7=近藤真彦 - ハイティーン・ブギ
TTITLE8=アン・ルイス - ラ・セゾン
TTITLE9=あみん - 待つわ
TTITLE10=渡辺徹 - 約束
TTITLE11=中森明菜 - セカンド・ラブ
TTITLE12=柏原芳恵 - 春なのに
TTITLE13=ラッツ&スター - め組のひと
TTITLE14=原田知世 - 時をかける少女
TTITLE15=薬師丸ひろ子 - 探偵物語
TTITLE16=THE ALFEE - メリーアン
TTITLE17=杏里 - CAT’S EYE
TTITLE18=小泉今日子 - 艶姿ナミダ娘
TTITLE19=松本伊代 - 時に愛は
TTITLE20=ザ・ベストテン - ハイ、ポーズ
EXTD=
EXTT0=
EXTT1=
EXTT2=
EXTT3=
EXTT4=
EXTT5=
EXTT6=
EXTT7=
EXTT8=
EXTT9=
EXTT10=
EXTT11=
EXTT12=
EXTT13=
EXTT14=
EXTT15=
EXTT16=
EXTT17=
EXTT18=
EXTT19=
EXTT20=
PLAYORDER=
